{"title":"Transformers 3 2011 Dark Of The Moon READNFO XViD CAM DTRG","uid":6509922,"size":1446442307,"categoryP":"video","categoryS":"movies","magnet":"?xt=urn:btih:dc1b4c4967842fc5f23b7fb4073e7076cb8af7e4&amp;dn=Transformers+3+2011+Dark+Of+The+Moon+READNFO+XViD+CAM+DTRG&amp;tr=udp%3A%2F%2Ftracker.openbittorrent.com%3A80&amp;tr=udp%3A%2F%2Fopen.demonii.com%3A1337&amp;tr=udp%3A%2F%2Ftracker.coppersurfer.tk%3A6969&amp;tr=udp%3A%2F%2Fexodus.desync.com%3A6969","seeders":0,"leechers":1,"uploader":"SAFCukO09","files":3,"time":1309584996,"description":"Format : AVI\nFormat/Info : Audio Video Interleave\nFormat profile : OpenDML\nFile size : 1.35 GiB\nDuration : 2h 23mn\nOverall bit rate : 1 343 Kbps\nWriting application : Lavf52.47.0\n\nVideo\nID : 0\nFormat : xvid\nCodec ID : xvid\nDuration : 2h 23mn\nBit rate : 349 Kbps\nWidth : 720 pixels\nHeight : 304 pixels\nDisplay aspect ratio : 2.35:1\nFrame rate : 25.000 fps\nBits/(Pixel*Frame) : 0.064\nStream size : 359 MiB (26%)\n\nAudio\nID : 1\nFormat : MPEG Audio\nCodec ID : 55\nCodec ID/Hint : MP3\nDuration : 2h 23mn\nBit rate : 128 Kbps\nChannel(s) : 2 channels\nSampling rate : 48.0 KHz\nCompression mode : Lossy\nStream size : 33.3 MiB (2%)\nAlignment : Aligned on interleaves\nInterleave, duration : 28 ms (0.69 video frame)\n\n\n\n\n\n &lt;a href=&quot;\nhttp://www.imdb.com/title/tt1399103/&quot; rel=&quot;nofollow&quot; target=&quot;_NEW&quot;&gt;\nhttp://www.imdb.com/title/tt1399103/&lt;/a&gt;\n\n\n\n\n\n\n\n\nUsers: (5,322 votes) 211 reviews | Critics: 55 reviews Metascore: 48/100 (based on 26 reviews from Metacritic.com)\n\n\nThe Autobots learn of a Cybertronian spacecraft hidden on the Moon, and race against the Decepticons to reach it and to learn its secrets\n\n\n\nSource Used\n\n\n\nVideo : Relizlab v1 &amp; v2 ...............Thanks\n\nAudio : SpankMySeedBox ...................Thanks m8\n\n\n\nOnly reason for the readnfo is to state that joined the v1 &amp; v2 to add the missing minutes so its complete\n\nResized and filtered the 1st 13mins but never did a great deal with v2 just a few touches then joined the 2 then the damn thing went outta sync by 700ms so had to bring it back and thats about it was it worth it no but someone might want this while we wait for better\n\n\n\nEnjoy\n\n\n\n\n\nGreetz to IMAGiNE,Flawl3ss,DiLLoN,BDK,NOiR,TOXiC,THC,Ez,Rx,Boobyblue,TaRiQ786,LKRG,\n\n\n\n\n &lt;a href=&quot;\nhttp://www.leetleech.org/images/16874899682688015436.png&quot; rel=&quot;nofollow&quot; target=&quot;_NEW&quot;&gt;\nhttp://www.leetleech.org/images/16874899682688015436.png&lt;/a&gt;","torrent":{"xt":"urn:btih:dc1b4c4967842fc5f23b7fb4073e7076cb8af7e4","amp;dn":"Transformers+3+2011+Dark+Of+The+Moon+READNFO+XViD+CAM+DTRG","amp;tr":["udp%3A%2F%2Ftracker.openbittorrent.com%3A80","udp%3A%2F%2Fopen.demonii.com%3A1337","udp%3A%2F%2Ftracker.coppersurfer.tk%3A6969","udp%3A%2F%2Fexodus.desync.com%3A6969"],"infoHash":"dc1b4c4967842fc5f23b7fb4073e7076cb8af7e4","infoHashBuffer":{"type":"Buffer","data":[220,27,76,73,103,132,47,197,242,59,127,180,7,62,112,118,203,138,247,228]},"announce":[],"urlList":[]}}